# xmcd
#
# Track frame offsets:
#	150
#	12593
#	24998
#	36351
#	46149
#	56695
#	68964
#	84183
#	97272
#	108035
#	119384
#	130654
#	144615
#	158561
#	174287
#	186558
#	198867
#	211116
#	223190
#	236244
#	248793
#	261649
#	271276
#
# Disc length: 3701 seconds
#
# Revision: 1
# Processed by: cddbd v1.5.2PL0 Copyright (c) Steve Scherf et al.
# Submitted via: audiograbber 1.83.01
#
DISCID=4f0e7317
DTITLE=Various Artist - Bluegrass - Out and Out - CD2
DYEAR=2012
DGENRE=Bluegrass
TTITLE0=Sonny Osborne - I'm On My Way Back To The Old Home
TTITLE1=The Lonesome Pine Fiddlers - Pain In My Heart
TTITLE2=Frank Hunter and His Black Mountain Boys - Long Time No See
TTITLE3=The Bailey Brothers - Rattlesnake Daddy Blues
TTITLE4=The Stanley Brothers With The Clinch Mountain Boys - Little Maggie
TTITLE5=Grandpa Jones - Five String Banjo Boogie
TTITLE6=Emry Arthur - I Am A Man Of Constant Sorrow
TTITLE7=Charlie Poole and The North Carolina Ramblers - Don't Let Your Deal Go Do
TTITLE7=wn Blues
TTITLE8=Dock Walsh - Going Back To Jericho
TTITLE9=Bill Monroe and His Bluegrass Boys - Cryin' Holy Unto My Lord
TTITLE10=The McCormick Brothers - Red Hen Boogie
TTITLE11=G B Grayson and Henry Whitter - Train 45
TTITLE12=Uncle Dave Macon and His Fruit Jar Drinkers - Go Along Mule
TTITLE13=G B Grayson and Henry Whitter - Little Maggie With A Dram Glass In Her H
TTITLE13=and
TTITLE14=The Stanley Brothers With The Clinch Mountain Boys - Let Me Be Your Fr
TTITLE14=iend
TTITLE15=Jimmie Skinner - Doin' My Time
TTITLE16=Frank Wakefield and Buster Turner - Leave Well Enough Alone
TTITLE17=Byron Parker and His Mountaineers - C and N W Railroad Blues
TTITLE18=Bill Monroe and His Bluegrass Boys - Tennessee Blues
TTITLE19=Roy Hall and His Blue Ridge Entertainers - Loving You Too Well
TTITLE20=Bill Monroe and His Bluegrass Boys - Back Up And Push
TTITLE21=Hobo Jack Adkins - Going Back To Old Kentucky
TTITLE22=Curley Parker and The Blue Sky Boys - Ida Red
EXTD=
EXTT0=
EXTT1=
EXTT2=
EXTT3=
EXTT4=
EXTT5=
EXTT6=
EXTT7=
EXTT8=
EXTT9=
EXTT10=
EXTT11=
EXTT12=
EXTT13=
EXTT14=
EXTT15=
EXTT16=
EXTT17=
EXTT18=
EXTT19=
EXTT20=
EXTT21=
EXTT22=
PLAYORDER=
